<svg xmlns="http://www.w3.org/2000/svg" width="1200" height="2400" viewBox="0 0 1200 2400">
  <defs>
    <style>
      .title-font { font-family: Arial, Helvetica, sans-serif; font-size: 18px; font-weight: bold; fill: #1F2937; }
      .label-font { font-family: Arial, Helvetica, sans-serif; font-size: 13px; fill: #1F2937; }
      .small-font { font-family: Arial, Helvetica, sans-serif; font-size: 12px; fill: #6B7280; }
      .badge-text { font-family: Arial, Helvetica, sans-serif; font-size: 11px; font-weight: bold; fill: #FFFFFF; }
      .header-text { font-family: Arial, Helvetica, sans-serif; font-size: 14px; font-weight: bold; fill: #FFFFFF; }
      .field-value { font-family: Arial, Helvetica, sans-serif; font-size: 13px; fill: #1F2937; }
      .section-title { font-family: Arial, Helvetica, sans-serif; font-size: 15px; font-weight: bold; fill: #1F2937; }
      .card-desc { font-family: Arial, Helvetica, sans-serif; font-size: 12px; fill: #6B7280; font-style: italic; }
      .stakeholder-title { font-family: Arial, Helvetica, sans-serif; font-size: 13px; font-weight: bold; fill: #1F2937; }
      .stakeholder-text { font-family: Arial, Helvetica, sans-serif; font-size: 12px; fill: #374151; }
    </style>
  </defs>

  <!-- Background -->
  <rect width="1200" height="2400" fill="#F9FAFB"/>

  <!-- ==================== STEP 1 (y=20) ==================== -->
  <rect x="30" y="20" width="1140" height="140" rx="8" fill="#FFFFFF" stroke="#D1D5DB" stroke-width="1"/>
  <!-- Step badge -->
  <rect x="50" y="35" width="55" height="22" rx="11" fill="#C26A1B"/>
  <text x="77" y="50" text-anchor="middle" class="badge-text">Step 1</text>
  <text x="115" y="51" class="title-font">Rotation Overview</text>

  <!-- Compact card row -->
  <text x="60" y="85" class="label-font" font-weight="bold">Name:</text>
  <text x="108" y="85" class="field-value">Crop Rotation test</text>
  <text x="290" y="85" class="label-font" font-weight="bold">Start:</text>
  <text x="330" y="85" class="field-value">1907</text>
  <text x="400" y="85" class="label-font" font-weight="bold">End:</text>
  <text x="432" y="85" class="field-value">2026</text>
  <text x="500" y="85" class="label-font" font-weight="bold">Field size:</text>
  <text x="565" y="85" class="field-value">50 ha</text>

  <!-- Field inputs -->
  <rect x="100" y="100" width="170" height="30" rx="4" fill="#FFFFFF" stroke="#D1D5DB" stroke-width="1"/>
  <text x="110" y="120" class="field-value">Crop Rotation test</text>
  <rect x="320" y="100" width="60" height="30" rx="4" fill="#FFFFFF" stroke="#D1D5DB" stroke-width="1"/>
  <text x="330" y="120" class="field-value">1907</text>
  <rect x="420" y="100" width="60" height="30" rx="4" fill="#FFFFFF" stroke="#D1D5DB" stroke-width="1"/>
  <text x="430" y="120" class="field-value">2026</text>
  <rect x="540" y="100" width="70" height="30" rx="4" fill="#FFFFFF" stroke="#D1D5DB" stroke-width="1"/>
  <text x="550" y="120" class="field-value">50 ha</text>

  <!-- ==================== STEP 2 (y=180) ==================== -->
  <rect x="30" y="180" width="1140" height="250" rx="8" fill="#FFFFFF" stroke="#D1D5DB" stroke-width="1"/>
  <rect x="50" y="195" width="55" height="22" rx="11" fill="#C26A1B"/>
  <text x="77" y="210" text-anchor="middle" class="badge-text">Step 2</text>
  <text x="115" y="211" class="title-font">Build Your Rotation Sequence</text>

  <!-- Add crop button -->
  <rect x="50" y="230" width="110" height="30" rx="5" fill="#26428B"/>
  <text x="105" y="250" text-anchor="middle" class="header-text">+ Add Crop</text>
  <text x="180" y="250" class="small-font">Crops in sequence: 2</text>

  <!-- Timeline card 1: Wheat 1907 -->
  <rect x="50" y="270" width="520" height="65" rx="6" fill="#FFFFFF" stroke="#D1D5DB" stroke-width="1"/>
  <text x="65" y="295" class="label-font" font-weight="bold">1907</text>
  <rect x="110" y="280" width="80" height="24" rx="4" fill="#E8F0FE"/>
  <text x="150" y="296" text-anchor="middle" class="label-font">Wheat</text>
  <text x="210" y="296" class="small-font">Cover crop:</text>
  <rect x="280" y="280" width="90" height="24" rx="4" fill="#E8F4E8"/>
  <text x="325" y="296" text-anchor="middle" style="font-family:Arial;font-size:12px;fill:#4CAF50">Rapeseed</text>

  <!-- Timeline card 2: DryPeas 1908 -->
  <rect x="50" y="345" width="520" height="65" rx="6" fill="#FFFFFF" stroke="#D1D5DB" stroke-width="1"/>
  <text x="65" y="370" class="label-font" font-weight="bold">1908</text>
  <rect x="110" y="355" width="80" height="24" rx="4" fill="#E8F0FE"/>
  <text x="150" y="371" text-anchor="middle" class="label-font">DryPeas</text>
  <text x="210" y="371" class="small-font">Cover crop:</text>
  <rect x="280" y="355" width="100" height="24" rx="4" fill="#E8F4E8"/>
  <text x="330" y="371" text-anchor="middle" style="font-family:Arial;font-size:12px;fill:#4CAF50">PigeonBean</text>

  <!-- ==================== STEP 3 (y=450) ==================== -->
  <rect x="30" y="450" width="1140" height="380" rx="8" fill="#FFFFFF" stroke="#D1D5DB" stroke-width="1"/>
  <rect x="50" y="465" width="55" height="22" rx="11" fill="#C26A1B"/>
  <text x="77" y="480" text-anchor="middle" class="badge-text">Step 3</text>
  <text x="115" y="481" class="title-font">Preview Field Assignments</text>

  <!-- Grid header -->
  <rect x="50" y="505" width="1100" height="30" rx="0" fill="#26428B"/>
  <text x="100" y="525" class="header-text">Field</text>
  <text x="230" y="525" text-anchor="middle" class="header-text">1907</text>
  <text x="380" y="525" text-anchor="middle" class="header-text">1908</text>
  <text x="530" y="525" text-anchor="middle" class="header-text">1909</text>
  <text x="680" y="525" text-anchor="middle" class="header-text">1910</text>
  <text x="830" y="525" text-anchor="middle" class="header-text">1911</text>

  <!-- Field 1 row -->
  <rect x="50" y="540" width="100" height="120" fill="#F9FAFB" stroke="#D1D5DB" stroke-width="1"/>
  <text x="100" y="605" text-anchor="middle" class="label-font" font-weight="bold">Field 1</text>

  <!-- 1907 Wheat -->
  <rect x="155" y="540" width="145" height="120" fill="#FFFFFF" stroke="#D1D5DB" stroke-width="1"/>
  <text x="227" y="575" text-anchor="middle" class="label-font" font-weight="bold">Wheat</text>
  <text x="227" y="600" text-anchor="middle" style="font-family:Arial;font-size:11px;fill:#4CAF50">Cover: Rapeseed</text>

  <!-- 1908 DryPeas -->
  <rect x="305" y="540" width="145" height="120" fill="#FFFFFF" stroke="#D1D5DB" stroke-width="1"/>
  <text x="377" y="575" text-anchor="middle" class="label-font" font-weight="bold">DryPeas</text>
  <text x="377" y="600" text-anchor="middle" style="font-family:Arial;font-size:11px;fill:#4CAF50">Cover: PigeonBean</text>

  <!-- 1909 Wheat -->
  <rect x="455" y="540" width="145" height="120" fill="#FFFFFF" stroke="#D1D5DB" stroke-width="1"/>
  <text x="527" y="575" text-anchor="middle" class="label-font" font-weight="bold">Wheat</text>
  <text x="527" y="600" text-anchor="middle" style="font-family:Arial;font-size:11px;fill:#4CAF50">Cover: Rapeseed</text>

  <!-- 1910 DryPeas - SELECTED -->
  <rect x="605" y="540" width="145" height="120" fill="#E8F0FE" stroke="#26428B" stroke-width="2"/>
  <text x="677" y="575" text-anchor="middle" class="label-font" font-weight="bold">DryPeas</text>
  <text x="677" y="600" text-anchor="middle" style="font-family:Arial;font-size:11px;fill:#4CAF50">Cover: PigeonBean</text>

  <!-- 1911 Wheat -->
  <rect x="755" y="540" width="145" height="120" fill="#FFFFFF" stroke="#D1D5DB" stroke-width="1"/>
  <text x="827" y="575" text-anchor="middle" class="label-font" font-weight="bold">Wheat</text>
  <text x="827" y="600" text-anchor="middle" style="font-family:Arial;font-size:11px;fill:#4CAF50">Cover: Rapeseed</text>

  <!-- Field 2 row -->
  <rect x="50" y="665" width="100" height="60" fill="#F9FAFB" stroke="#D1D5DB" stroke-width="1"/>
  <text x="100" y="700" text-anchor="middle" class="label-font" font-weight="bold">Field 2</text>
  <rect x="155" y="665" width="745" height="60" fill="#FFFFFF" stroke="#D1D5DB" stroke-width="1"/>
  <text x="527" y="700" text-anchor="middle" class="small-font">No crops assigned</text>

  <!-- Divider before Step 4 -->
  <line x1="30" y1="845" x2="1170" y2="845" stroke="#D1D5DB" stroke-width="2" stroke-dasharray="8,4"/>

  <!-- ==================== STEP 4 (y=860) — WIZARD ==================== -->
  <rect x="30" y="860" width="1140" height="1480" rx="8" fill="#FFFFFF" stroke="#D1D5DB" stroke-width="1"/>
  <rect x="50" y="875" width="55" height="22" rx="11" fill="#C26A1B"/>
  <text x="77" y="890" text-anchor="middle" class="badge-text">Step 4</text>
  <text x="115" y="891" class="title-font">Edit Crop Details</text>

  <!-- Currently editing header -->
  <rect x="50" y="910" width="1100" height="36" rx="6" fill="#E8F0FE" stroke="#26428B" stroke-width="1"/>
  <text x="65" y="933" style="font-family:Arial;font-size:14px;font-weight:bold;fill:#26428B">DryPeas (1910) — Field 1 | Main Crop &#x25BC;</text>

  <!-- ====== Card 1: General Properties - EXPANDED ====== -->
  <rect x="60" y="960" width="1090" height="220" rx="6" fill="#FFFFFF" stroke="#D1D5DB" stroke-width="1"/>
  <rect x="60" y="960" width="5" height="220" rx="0" fill="#4CAF50"/>
  <!-- Header -->
  <text x="80" y="987" class="section-title">General Properties</text>
  <!-- Green checkmark -->
  <circle cx="230" cy="982" r="9" fill="#4CAF50"/>
  <text x="230" y="987" text-anchor="middle" style="font-family:Arial;font-size:12px;fill:#FFFFFF">&#x2713;</text>
  <text x="250" y="987" class="small-font">(Always required)</text>

  <!-- Form fields row 1 -->
  <text x="80" y="1020" class="label-font">Yield</text>
  <rect x="80" y="1028" width="120" height="28" rx="4" fill="#FFFFFF" stroke="#D1D5DB" stroke-width="1"/>
  <text x="90" y="1047" class="field-value">1000.0</text>
  <text x="207" y="1047" class="small-font">kg/ha</text>

  <text x="270" y="1020" class="label-font">Dry yield</text>
  <rect x="270" y="1028" width="100" height="28" rx="4" fill="#FFFFFF" stroke="#D1D5DB" stroke-width="1"/>
  <text x="280" y="1047" class="field-value">0.00</text>

  <text x="400" y="1020" class="label-font">Moisture</text>
  <rect x="400" y="1028" width="80" height="28" rx="4" fill="#FFFFFF" stroke="#D1D5DB" stroke-width="1"/>
  <text x="410" y="1047" class="field-value">12.0</text>
  <text x="487" y="1047" class="small-font">%</text>

  <text x="530" y="1020" class="label-font">Tillage</text>
  <rect x="530" y="1028" width="120" height="28" rx="4" fill="#FFFFFF" stroke="#D1D5DB" stroke-width="1"/>
  <text x="540" y="1047" class="field-value">Reduced &#x25BC;</text>

  <!-- Form fields row 2 -->
  <text x="80" y="1085" class="label-font">Harvest</text>
  <rect x="80" y="1093" width="120" height="28" rx="4" fill="#FFFFFF" stroke="#D1D5DB" stroke-width="1"/>
  <text x="90" y="1112" class="field-value">Cash crop &#x25BC;</text>

  <text x="270" y="1085" class="label-font">Irrigation</text>
  <rect x="270" y="1093" width="100" height="28" rx="4" fill="#FFFFFF" stroke="#D1D5DB" stroke-width="1"/>
  <text x="280" y="1112" class="field-value">0.0</text>
  <text x="377" y="1112" class="small-font">mm</text>

  <text x="420" y="1085" class="label-font">Pesticide passes</text>
  <rect x="420" y="1093" width="70" height="28" rx="4" fill="#FFFFFF" stroke="#D1D5DB" stroke-width="1"/>
  <text x="430" y="1112" class="field-value">0</text>

  <!-- ====== Card 2: Fertilizer - EXPANDED ====== -->
  <rect x="60" y="1195" width="1090" height="155" rx="6" fill="#FFFFFF" stroke="#D1D5DB" stroke-width="1"/>
  <rect x="60" y="1195" width="5" height="155" rx="0" fill="#4CAF50"/>
  <text x="80" y="1222" class="section-title">Do you apply fertilizer to this crop?</text>
  <!-- Toggle ON -->
  <rect x="370" y="1208" width="40" height="20" rx="10" fill="#4CAF50"/>
  <circle cx="400" cy="1218" r="8" fill="#FFFFFF"/>

  <!-- Fertilizer fields -->
  <text x="80" y="1260" class="label-font">Fertilizer type</text>
  <rect x="80" y="1268" width="140" height="28" rx="4" fill="#FFFFFF" stroke="#D1D5DB" stroke-width="1"/>
  <text x="90" y="1287" class="field-value">Urea &#x25BC;</text>

  <text x="250" y="1260" class="label-font">Rate</text>
  <rect x="250" y="1268" width="100" height="28" rx="4" fill="#FFFFFF" stroke="#D1D5DB" stroke-width="1"/>
  <text x="260" y="1287" class="field-value">50.0</text>
  <text x="357" y="1287" class="small-font">kg/ha</text>

  <text x="420" y="1260" class="label-font">Season</text>
  <rect x="420" y="1268" width="120" height="28" rx="4" fill="#FFFFFF" stroke="#D1D5DB" stroke-width="1"/>
  <text x="430" y="1287" class="field-value">Spring &#x25BC;</text>

  <!-- ====== Card 3: Manure - COLLAPSED ====== -->
  <rect x="60" y="1365" width="1090" height="60" rx="6" fill="#FFFFFF" stroke="#D1D5DB" stroke-width="1"/>
  <rect x="60" y="1365" width="5" height="60" rx="0" fill="#9CA3AF"/>
  <text x="80" y="1393" class="section-title">Do you apply manure to this crop?</text>
  <!-- Toggle OFF -->
  <rect x="365" y="1380" width="40" height="20" rx="10" fill="#9CA3AF"/>
  <circle cx="375" cy="1390" r="8" fill="#FFFFFF"/>
  <text x="420" y="1403" class="small-font">Using defaults — no manure applied</text>

  <!-- ====== Card 4: Grazing - COLLAPSED ====== -->
  <rect x="60" y="1440" width="1090" height="60" rx="6" fill="#FFFFFF" stroke="#D1D5DB" stroke-width="1"/>
  <rect x="60" y="1440" width="5" height="60" rx="0" fill="#9CA3AF"/>
  <text x="80" y="1468" class="section-title">Is this crop grazed?</text>
  <rect x="260" y="1455" width="40" height="20" rx="10" fill="#9CA3AF"/>
  <circle cx="270" cy="1465" r="8" fill="#FFFFFF"/>
  <text x="315" y="1478" class="small-font">Using defaults — no grazing</text>

  <!-- ====== Card 5: Soil - COLLAPSED ====== -->
  <rect x="60" y="1515" width="1090" height="60" rx="6" fill="#FFFFFF" stroke="#D1D5DB" stroke-width="1"/>
  <rect x="60" y="1515" width="5" height="60" rx="0" fill="#9CA3AF"/>
  <text x="80" y="1543" class="section-title">Would you like to configure soil properties?</text>
  <rect x="415" y="1530" width="40" height="20" rx="10" fill="#9CA3AF"/>
  <circle cx="425" cy="1540" r="8" fill="#FFFFFF"/>
  <text x="470" y="1553" class="small-font">Using defaults</text>

  <!-- ====== Card 6: Residue - COLLAPSED ====== -->
  <rect x="60" y="1590" width="1090" height="60" rx="6" fill="#FFFFFF" stroke="#D1D5DB" stroke-width="1"/>
  <rect x="60" y="1590" width="5" height="60" rx="0" fill="#9CA3AF"/>
  <text x="80" y="1618" class="section-title">Do you want to track residue management?</text>
  <rect x="405" y="1605" width="40" height="20" rx="10" fill="#9CA3AF"/>
  <circle cx="415" cy="1615" r="8" fill="#FFFFFF"/>
  <text x="460" y="1628" class="small-font">Using defaults</text>

  <!-- ====== Card 7: Economics - COLLAPSED ====== -->
  <rect x="60" y="1665" width="1090" height="60" rx="6" fill="#FFFFFF" stroke="#D1D5DB" stroke-width="1"/>
  <rect x="60" y="1665" width="5" height="60" rx="0" fill="#9CA3AF"/>
  <text x="80" y="1693" class="section-title">Include economic analysis?</text>
  <rect x="300" y="1680" width="40" height="20" rx="10" fill="#9CA3AF"/>
  <circle cx="310" cy="1690" r="8" fill="#FFFFFF"/>
  <text x="355" y="1703" class="small-font">Using defaults — economics not tracked</text>

  <!-- ==================== STAKEHOLDER TEXT ==================== -->
  <rect x="30" y="1780" width="1140" height="260" rx="8" fill="#FFF8F0" stroke="#C26A1B" stroke-width="1"/>
  <text x="50" y="1810" class="stakeholder-title">Current State:</text>
  <text x="50" y="1830" class="stakeholder-text">Currently, Step 4 shows all 7 tabs simultaneously (General, Fertilizer, Manure, Grazing, Soil, Residue,</text>
  <text x="50" y="1848" class="stakeholder-text">Economics), regardless of whether the user needs them. Users must scroll through many irrelevant input fields.</text>

  <text x="50" y="1880" class="stakeholder-title">Proposed Change:</text>
  <text x="50" y="1900" class="stakeholder-text">This wizard approach asks simple yes/no questions for each category. Only relevant sections expand to show</text>
  <text x="50" y="1918" class="stakeholder-text">input fields. General properties are always shown. Other categories default to 'off' and can be toggled on</text>
  <text x="50" y="1936" class="stakeholder-text">when needed. This dramatically reduces the visible complexity for users who only need basic crop properties.</text>
</svg>