<svg xmlns="http://www.w3.org/2000/svg" width="1200" height="2300" viewBox="0 0 1200 2300">
  <defs>
    <style>
      text { font-family: 'Segoe UI', Arial, sans-serif; }
      .title { font-size: 18px; font-weight: 600; fill: #1F2937; }
      .subtitle { font-size: 14px; fill: #6B7280; }
      .label { font-size: 13px; fill: #1F2937; }
      .value { font-size: 13px; fill: #6B7280; }
      .small { font-size: 11px; fill: #6B7280; }
      .badge-text { font-size: 12px; fill: #FFFFFF; font-weight: 700; }
      .crop-name { font-size: 13px; font-weight: 600; fill: #1F2937; }
      .cover-crop { font-size: 11px; fill: #4CAF50; font-style: italic; }
      .year-text { font-size: 11px; fill: #6B7280; }
      .tab-text { font-size: 13px; fill: #6B7280; }
      .tab-active { font-size: 13px; fill: #26428B; font-weight: 600; }
      .field-label { font-size: 13px; fill: #1F2937; font-weight: 600; }
      .btn-text { font-size: 13px; fill: #FFFFFF; font-weight: 600; }
      .header-text { font-size: 16px; fill: #FFFFFF; font-weight: 600; }
      .annotation { font-size: 12px; fill: #C26A1B; font-style: italic; }
    </style>
  </defs>

  <!-- Background -->
  <rect width="1200" height="2300" fill="#F9FAFB" />

  <!-- ==================== STEP 1: Rotation Overview ==================== -->
  <rect x="40" y="20" width="56" height="24" rx="12" fill="#C26A1B" />
  <text x="68" y="36" text-anchor="middle" class="badge-text">Step 1</text>
  <text x="106" y="37" class="title">Rotation Overview</text>

  <rect x="40" y="55" width="1120" height="120" rx="8" fill="#FFFFFF" stroke="#D1D5DB" stroke-width="1" />
  <text x="60" y="85" class="label" font-weight="600">Name:</text>
  <text x="110" y="85" class="value">Crop Rotation test</text>
  <text x="340" y="85" class="label" font-weight="600">Start Year:</text>
  <text x="420" y="85" class="value">1907</text>
  <text x="540" y="85" class="label" font-weight="600">End Year:</text>
  <text x="615" y="85" class="value">2026</text>
  <text x="740" y="85" class="label" font-weight="600">Field Size:</text>
  <text x="815" y="85" class="value">50 ha</text>

  <!-- ==================== STEP 2: Build Your Rotation Sequence ==================== -->
  <rect x="40" y="200" width="56" height="24" rx="12" fill="#C26A1B" />
  <text x="68" y="216" text-anchor="middle" class="badge-text">Step 2</text>
  <text x="106" y="217" class="title">Build Your Rotation Sequence</text>

  <rect x="40" y="240" width="110" height="32" rx="6" fill="#26428B" />
  <text x="95" y="261" text-anchor="middle" class="btn-text">+ Add Crop</text>
  <text x="170" y="261" class="subtitle">Crops in sequence: 2</text>

  <text x="40" y="300" class="label" font-weight="600">Rotation Timeline</text>

  <!-- Card 1: 1907 Wheat -->
  <rect x="40" y="312" width="520" height="160" rx="8" fill="#FFFFFF" stroke="#D1D5DB" stroke-width="1" />
  <text x="60" y="338" class="year-text">Year: 1907</text>
  <text x="60" y="365" class="label">Select crop</text>
  <rect x="60" y="372" width="200" height="30" rx="4" fill="#FFFFFF" stroke="#D1D5DB" stroke-width="1" />
  <text x="70" y="392" class="value">Wheat</text>
  <text x="240" y="392" class="small">&#x25BC;</text>
  <rect x="60" y="415" width="14" height="14" rx="2" fill="#26428B" stroke="#26428B" stroke-width="1" />
  <text x="62" y="426" font-size="10" fill="#FFFFFF" font-weight="700">&#x2713;</text>
  <text x="82" y="427" class="label">Cover Crop</text>
  <text x="60" y="452" class="label">Cover Crop Type</text>
  <rect x="60" y="458" width="200" height="30" rx="4" fill="#FFFFFF" stroke="#D1D5DB" stroke-width="1" />
  <text x="70" y="478" class="value">Rapeseed</text>
  <text x="240" y="478" class="small">&#x25BC;</text>

  <!-- Card 2: 1908 DryPeas -->
  <rect x="580" y="312" width="520" height="160" rx="8" fill="#FFFFFF" stroke="#D1D5DB" stroke-width="1" />
  <text x="600" y="338" class="year-text">Year: 1908</text>
  <text x="600" y="365" class="label">Select crop</text>
  <rect x="600" y="372" width="200" height="30" rx="4" fill="#FFFFFF" stroke="#D1D5DB" stroke-width="1" />
  <text x="610" y="392" class="value">DryPeas</text>
  <text x="780" y="392" class="small">&#x25BC;</text>
  <rect x="600" y="415" width="14" height="14" rx="2" fill="#26428B" stroke="#26428B" stroke-width="1" />
  <text x="602" y="426" font-size="10" fill="#FFFFFF" font-weight="700">&#x2713;</text>
  <text x="622" y="427" class="label">Cover Crop</text>
  <text x="600" y="452" class="label">Cover Crop Type</text>
  <rect x="600" y="458" width="200" height="30" rx="4" fill="#FFFFFF" stroke="#D1D5DB" stroke-width="1" />
  <text x="610" y="478" class="value">PigeonBean</text>
  <text x="780" y="478" class="small">&#x25BC;</text>
  <rect x="1040" y="322" width="50" height="26" rx="4" fill="#FEE2E2" />
  <text x="1065" y="340" text-anchor="middle" font-size="12" fill="#DC2626" font-weight="600">Delete</text>

  <!-- ==================== STEP 3: Preview with Expandable Row ==================== -->
  <rect x="40" y="510" width="56" height="24" rx="12" fill="#C26A1B" />
  <text x="68" y="526" text-anchor="middle" class="badge-text">Step 3</text>
  <text x="106" y="527" class="title">Preview Field Assignments</text>

  <!-- Grid container (taller to accommodate expanded row) -->
  <rect x="40" y="550" width="1120" height="1190" rx="8" fill="#FFFFFF" stroke="#D1D5DB" stroke-width="1" />

  <!-- Column headers -->
  <text x="60" y="580" class="label" font-weight="600">Field</text>
  <text x="227" y="575" text-anchor="middle" class="year-text">1907</text>
  <text x="407" y="575" text-anchor="middle" class="year-text">1908</text>
  <text x="587" y="575" text-anchor="middle" class="year-text">1909</text>
  <text x="767" y="575" text-anchor="middle" class="year-text">1910</text>
  <text x="947" y="575" text-anchor="middle" class="year-text">1911</text>

  <line x1="40" y1="590" x2="1160" y2="590" stroke="#D1D5DB" stroke-width="1" />

  <!-- Field 1 row -->
  <text x="60" y="630" class="field-label">Field 1</text>

  <rect x="147" y="600" width="160" height="70" rx="6" fill="#FFFFFF" stroke="#D1D5DB" stroke-width="1" />
  <text x="227" y="625" text-anchor="middle" class="crop-name">Wheat</text>
  <text x="227" y="645" text-anchor="middle" class="cover-crop">Rapeseed</text>

  <rect x="327" y="600" width="160" height="70" rx="6" fill="#FFFFFF" stroke="#D1D5DB" stroke-width="1" />
  <text x="407" y="625" text-anchor="middle" class="crop-name">DryPeas</text>
  <text x="407" y="645" text-anchor="middle" class="cover-crop">PigeonBean</text>

  <rect x="507" y="600" width="160" height="70" rx="6" fill="#FFFFFF" stroke="#D1D5DB" stroke-width="1" />
  <text x="587" y="625" text-anchor="middle" class="crop-name">Wheat</text>
  <text x="587" y="645" text-anchor="middle" class="cover-crop">Rapeseed</text>

  <!-- 1910 SELECTED cell -->
  <rect x="687" y="600" width="160" height="70" rx="6" fill="#E8F0FE" stroke="#26428B" stroke-width="2" />
  <text x="767" y="625" text-anchor="middle" class="crop-name">DryPeas</text>
  <text x="767" y="645" text-anchor="middle" class="cover-crop">PigeonBean</text>

  <rect x="867" y="600" width="160" height="70" rx="6" fill="#FFFFFF" stroke="#D1D5DB" stroke-width="1" />
  <text x="947" y="625" text-anchor="middle" class="crop-name">Wheat</text>
  <text x="947" y="645" text-anchor="middle" class="cover-crop">Rapeseed</text>

  <!-- ==================== EXPANDED ROW (inline panel) ==================== -->
  <rect x="55" y="690" width="1090" height="530" rx="8" fill="#EEF3FC" stroke="#26428B" stroke-width="2" />

  <!-- Expanded header (blue bg) -->
  <rect x="55" y="690" width="1090" height="40" rx="8" fill="#26428B" />
  <!-- Cover bottom corners of header so only top is rounded -->
  <rect x="55" y="710" width="1090" height="20" fill="#26428B" />
  <text x="75" y="716" font-size="14" fill="#FFFFFF" font-weight="600">&#x25BC;  DryPeas (1910) Field 1</text>
  <text x="1110" y="716" text-anchor="end" font-size="12" fill="#FFFFFF">Collapse &#x25B2;</text>

  <!-- Radio buttons -->
  <circle cx="80" cy="755" r="7" fill="#FFFFFF" stroke="#26428B" stroke-width="2" />
  <circle cx="80" cy="755" r="3" fill="#26428B" />
  <text x="95" y="760" class="label">Main Crop</text>
  <circle cx="200" cy="755" r="7" fill="#FFFFFF" stroke="#D1D5DB" stroke-width="2" />
  <text x="215" y="760" class="label">Cover Crop</text>

  <!-- Tab strip -->
  <line x1="70" y1="785" x2="1130" y2="785" stroke="#D1D5DB" stroke-width="1" />
  <text x="86" y="778" class="tab-active">General</text>
  <rect x="70" y="783" width="55" height="3" fill="#26428B" />
  <text x="160" y="778" class="tab-text">Fertilizer</text>
  <text x="240" y="778" class="tab-text">Manure</text>
  <text x="310" y="778" class="tab-text">Grazing</text>
  <text x="375" y="778" class="tab-text">Soil</text>
  <text x="425" y="778" class="tab-text">Residue</text>
  <text x="505" y="778" class="tab-text">Economics</text>

  <!-- Form fields (2-column layout) -->
  <text x="75" y="820" class="label">Yield (kg/ha)</text>
  <rect x="75" y="828" width="480" height="32" rx="4" fill="#FFFFFF" stroke="#D1D5DB" stroke-width="1" />
  <text x="85" y="850" class="value">3200</text>

  <text x="585" y="820" class="label">Dry yield (kg/ha)</text>
  <rect x="585" y="828" width="480" height="32" rx="4" fill="#FFFFFF" stroke="#D1D5DB" stroke-width="1" />
  <text x="595" y="850" class="value">2800</text>

  <text x="75" y="885" class="label">Moisture (%)</text>
  <rect x="75" y="893" width="480" height="32" rx="4" fill="#FFFFFF" stroke="#D1D5DB" stroke-width="1" />
  <text x="85" y="915" class="value">14.0</text>

  <text x="585" y="885" class="label">Tillage type</text>
  <rect x="585" y="893" width="480" height="32" rx="4" fill="#FFFFFF" stroke="#D1D5DB" stroke-width="1" />
  <text x="595" y="915" class="value">Reduced Tillage</text>
  <text x="1045" y="915" class="small">&#x25BC;</text>

  <text x="75" y="950" class="label">Harvest method</text>
  <rect x="75" y="958" width="480" height="32" rx="4" fill="#FFFFFF" stroke="#D1D5DB" stroke-width="1" />
  <text x="85" y="980" class="value">Combine</text>
  <text x="535" y="980" class="small">&#x25BC;</text>

  <text x="585" y="950" class="label">Irrigation</text>
  <rect x="585" y="958" width="480" height="32" rx="4" fill="#FFFFFF" stroke="#D1D5DB" stroke-width="1" />
  <text x="595" y="980" class="value">Rainfed</text>
  <text x="1045" y="980" class="small">&#x25BC;</text>

  <text x="75" y="1015" class="label">Pesticide passes</text>
  <rect x="75" y="1023" width="480" height="32" rx="4" fill="#FFFFFF" stroke="#D1D5DB" stroke-width="1" />
  <text x="85" y="1045" class="value">2</text>

  <!-- Copy checkbox -->
  <rect x="75" y="1075" width="14" height="14" rx="2" fill="#FFFFFF" stroke="#D1D5DB" stroke-width="1" />
  <text x="97" y="1087" class="label">Copy to similar crops</text>

  <!-- ==================== Field 2 row (below expanded panel) ==================== -->
  <line x1="50" y1="1240" x2="1150" y2="1240" stroke="#D1D5DB" stroke-width="1" />

  <text x="60" y="1290" class="field-label">Field 2</text>

  <rect x="147" y="1260" width="160" height="70" rx="6" fill="#FFFFFF" stroke="#D1D5DB" stroke-width="1" />
  <text x="227" y="1285" text-anchor="middle" class="crop-name">DryPeas</text>
  <text x="227" y="1305" text-anchor="middle" class="cover-crop">PigeonBean</text>

  <rect x="327" y="1260" width="160" height="70" rx="6" fill="#FFFFFF" stroke="#D1D5DB" stroke-width="1" />
  <text x="407" y="1285" text-anchor="middle" class="crop-name">Wheat</text>
  <text x="407" y="1305" text-anchor="middle" class="cover-crop">Rapeseed</text>

  <rect x="507" y="1260" width="160" height="70" rx="6" fill="#FFFFFF" stroke="#D1D5DB" stroke-width="1" />
  <text x="587" y="1285" text-anchor="middle" class="crop-name">DryPeas</text>
  <text x="587" y="1305" text-anchor="middle" class="cover-crop">PigeonBean</text>

  <rect x="687" y="1260" width="160" height="70" rx="6" fill="#FFFFFF" stroke="#D1D5DB" stroke-width="1" />
  <text x="767" y="1285" text-anchor="middle" class="crop-name">Wheat</text>
  <text x="767" y="1305" text-anchor="middle" class="cover-crop">Rapeseed</text>

  <rect x="867" y="1260" width="160" height="70" rx="6" fill="#FFFFFF" stroke="#D1D5DB" stroke-width="1" />
  <text x="947" y="1285" text-anchor="middle" class="crop-name">DryPeas</text>
  <text x="947" y="1305" text-anchor="middle" class="cover-crop">PigeonBean</text>

  <!-- Annotation -->
  <rect x="40" y="1730" width="1120" height="40" rx="6" fill="#FFF7ED" stroke="#C26A1B" stroke-width="1" stroke-dasharray="4,3" />
  <text x="600" y="1755" text-anchor="middle" class="annotation">Row expands inline when a cell is clicked. The expanded panel pushes Field 2 down below.</text>

  <!-- ==================== EXPLANATORY TEXT SECTION ==================== -->
  <rect x="40" y="1800" width="1120" height="460" rx="8" fill="#F0F0F0" />

  <!-- Current State -->
  <text x="60" y="1835" font-size="15" font-weight="700" fill="#1F2937" font-family="Segoe UI, Arial, sans-serif">Current State</text>
  <text x="60" y="1860" font-size="13" fill="#4B5563" font-family="Segoe UI, Arial, sans-serif">Currently, Step 4 displays a large blue 'Currently editing' banner, a 'Copy to Similar Crops'</text>
  <text x="60" y="1878" font-size="13" fill="#4B5563" font-family="Segoe UI, Arial, sans-serif">toggle section, a cover crop toggle switch with instructional text, and the full set of property</text>
  <text x="60" y="1896" font-size="13" fill="#4B5563" font-family="Segoe UI, Arial, sans-serif">tabs -- all stacked vertically. When a cover crop is present, the user must use a toggle switch to</text>
  <text x="60" y="1914" font-size="13" fill="#4B5563" font-family="Segoe UI, Arial, sans-serif">swap between editing the main crop and cover crop properties. This creates a tall, cluttered layout</text>
  <text x="60" y="1932" font-size="13" fill="#4B5563" font-family="Segoe UI, Arial, sans-serif">that pushes the actual input fields far down the page.</text>

  <!-- Separator -->
  <line x1="60" y1="1952" x2="1140" y2="1952" stroke="#D1D5DB" stroke-width="1" />

  <!-- Proposed Change -->
  <text x="60" y="1980" font-size="15" font-weight="700" fill="#26428B" font-family="Segoe UI, Arial, sans-serif">Proposed Change</text>
  <text x="60" y="2005" font-size="13" fill="#4B5563" font-family="Segoe UI, Arial, sans-serif">This design removes the separate Step 4 section entirely. Instead, clicking a cell in the preview</text>
  <text x="60" y="2023" font-size="13" fill="#4B5563" font-family="Segoe UI, Arial, sans-serif">grid expands that row inline, revealing the editor directly beneath the selected cell. The editing</text>
  <text x="60" y="2041" font-size="13" fill="#4B5563" font-family="Segoe UI, Arial, sans-serif">context is immediately obvious -- users can see exactly which cell they clicked. A radio button</text>
  <text x="60" y="2059" font-size="13" fill="#4B5563" font-family="Segoe UI, Arial, sans-serif">selector allows switching between Main Crop and Cover Crop. Other grid rows push down to make</text>
  <text x="60" y="2077" font-size="13" fill="#4B5563" font-family="Segoe UI, Arial, sans-serif">room. Clicking a different cell or collapsing the panel returns to the compact grid view.</text>
</svg>